<svg xmlns="http://www.w3.org/2000/svg" enable-background="new 0 0 24 24" viewBox="0 0 24 24"><path d="M17.302,20.9h-2.396c-0.276,0-0.5-0.224-0.5-0.5v-7.2c0-0.376-0.118-0.76-0.997-0.76c-2.255,0-4.917,1.203-4.943,1.215l-1.674,0.779c-0.155,0.071-0.337,0.06-0.479-0.032c-0.145-0.092-0.231-0.25-0.231-0.421V3.6c0-0.276,0.224-0.5,0.5-0.5h2.396c0.276,0,0.5,0.224,0.5,0.5v6.151c1.005-0.305,2.48-0.651,3.992-0.651c1.657,0,2.67,0.667,3.229,1.227c1.081,1.083,1.177,2.44,1.104,2.916V20.4C17.802,20.676,17.578,20.9,17.302,20.9z M15.406,19.9h1.396v-6.7c0-0.053,0.009-0.105,0.024-0.155c0.02-0.137-0.013-1.186-0.837-2.011c-0.425-0.426-1.207-0.934-2.521-0.934c-1.746,0-3.461,0.509-4.327,0.812c-0.151,0.054-0.322,0.03-0.454-0.064c-0.133-0.094-0.211-0.246-0.211-0.408V4.1H7.081v9.096l0.966-0.449c0.119-0.054,2.887-1.307,5.362-1.307c1.251,0,1.997,0.658,1.997,1.76V19.9z"/><path d="M15.564 8h-2.396c-.19 0-.363-.108-.448-.278-.084-.17-.064-.374.051-.525.926-1.217 1.483-2.421 1.703-3.683C14.515 3.275 14.723 3.1 14.966 3.1h2.395c.144 0 .281.062.376.17.095.108.139.252.12.395-.202 1.549-.81 2.871-1.912 4.16C15.85 7.936 15.711 8 15.564 8zM14.129 7h1.201c.747-.917 1.212-1.854 1.438-2.9h-1.393C15.149 5.092 14.738 6.05 14.129 7zM6.641 20.899c-.069 0-.139-.014-.205-.044-.18-.081-.295-.259-.295-.456V15.6c0-.197.115-.375.295-.456.182-.081.391-.048.538.083l2.694 2.4C9.774 17.722 9.835 17.857 9.835 18s-.061.279-.168.374l-2.694 2.399C6.88 20.855 6.761 20.899 6.641 20.899zM7.141 16.715v2.569L8.583 18 7.141 16.715z"/><path d="M20.25,24H3.75c-1.379,0-2.5-1.122-2.5-2.5v-19c0-1.378,1.121-2.5,2.5-2.5h16.5c1.379,0,2.5,1.122,2.5,2.5v19C22.75,22.878,21.629,24,20.25,24z M3.75,1c-0.827,0-1.5,0.673-1.5,1.5v19c0,0.827,0.673,1.5,1.5,1.5h16.5c0.827,0,1.5-0.673,1.5-1.5v-19c0-0.827-0.673-1.5-1.5-1.5H3.75z"/></svg>