<svg xmlns="http://www.w3.org/2000/svg" enable-background="new 0 0 24 24" viewBox="0 0 24 24"><path d="M12,17c-6.729,0-12-2.196-12-5s5.271-5,12-5s12,2.196,12,5S18.729,17,12,17z M12,8C5.518,8,1,10.108,1,12s4.518,4,11,4s11-2.108,11-4S18.482,8,12,8z"/><path d="M7.671,23.001c-0.479,0-0.91-0.118-1.289-0.354l0,0C4,21.165,4.812,15.329,8.229,9.363c2.51-4.383,5.745-7.621,8.242-8.251c0.833-0.208,1.553-0.128,2.147,0.24C21,2.835,20.188,8.671,16.771,14.637c-2.51,4.383-5.745,7.621-8.242,8.251C8.228,22.963,7.942,23.001,7.671,23.001z M6.91,21.798c0.354,0.221,0.816,0.26,1.374,0.12c2.212-0.558,5.274-3.684,7.618-7.777c3.31-5.778,3.809-10.93,2.188-11.938c-0.354-0.221-0.816-0.261-1.374-0.12c-2.212,0.558-5.274,3.684-7.618,7.777C5.788,15.638,5.289,20.789,6.91,21.798L6.91,21.798z"/><path d="M16.329,23.001c-0.271,0-0.557-0.038-0.858-0.113c-2.497-0.63-5.732-3.868-8.242-8.251C3.812,8.671,3,2.835,5.382,1.353c0.593-0.368,1.315-0.448,2.147-0.24c2.497,0.63,5.732,3.868,8.242,8.251c3.417,5.966,4.229,11.802,1.848,13.284l0,0C17.239,22.883,16.808,23.001,16.329,23.001z M17.354,22.223h0.01H17.354z M6.677,2C6.383,2,6.126,2.067,5.91,2.202c-1.621,1.009-1.122,6.16,2.188,11.938c2.344,4.094,5.406,7.22,7.618,7.777c0.558,0.14,1.02,0.101,1.374-0.12l0,0c1.621-1.009,1.122-6.16-2.188-11.938c-2.344-4.094-5.406-7.22-7.618-7.777C7.067,2.027,6.864,2,6.677,2z"/><path d="M12,14.5c-1.378,0-2.5-1.121-2.5-2.5s1.122-2.5,2.5-2.5s2.5,1.121,2.5,2.5S13.378,14.5,12,14.5z M12,10.5c-0.827,0-1.5,0.673-1.5,1.5s0.673,1.5,1.5,1.5s1.5-0.673,1.5-1.5S12.827,10.5,12,10.5z"/></svg>